<?xml version="1.0" encoding="UTF-8" standalone="no"?>
<!-- Generator: Adobe Illustrator 26.0.2, SVG Export Plug-In . SVG Version: 6.00 Build 0)  -->

<svg
   version="1.1"
   id="图层_1"
   x="0px"
   y="0px"
   viewBox="0 0 151.44772 105.93607"
   xml:space="preserve"
   sodipodi:docname="keyesSTEM_big.svg"
   width="151.44772"
   height="105.93607"
   inkscape:version="1.2.2 (732a01da63, 2022-12-09)"
   xmlns:inkscape="http://www.inkscape.org/namespaces/inkscape"
   xmlns:sodipodi="http://sodipodi.sourceforge.net/DTD/sodipodi-0.dtd"
   xmlns="http://www.w3.org/2000/svg"
   xmlns:svg="http://www.w3.org/2000/svg"><defs
   id="defs754" /><sodipodi:namedview
   id="namedview752"
   pagecolor="#ffffff"
   bordercolor="#000000"
   borderopacity="0.25"
   inkscape:showpageshadow="2"
   inkscape:pageopacity="0.0"
   inkscape:pagecheckerboard="0"
   inkscape:deskcolor="#d1d1d1"
   showgrid="false"
   inkscape:zoom="6.3436333"
   inkscape:cx="100.02155"
   inkscape:cy="58.720292"
   inkscape:window-width="2485"
   inkscape:window-height="935"
   inkscape:window-x="9"
   inkscape:window-y="0"
   inkscape:window-maximized="0"
   inkscape:current-layer="图层_1" />
<style
   type="text/css"
   id="style2">
	.st0{fill:#B09D86;}
	.st1{fill:#C0B09B;}
	.st2{fill:#C9CACA;}
	.st3{fill:#E7E2DC;}
	.st4{fill:url(#SVGID_1_);}
	.st5{fill:url(#SVGID_00000043443525483906041930000008558433421397211531_);}
	.st6{fill:url(#SVGID_00000101794359960478136550000016553511320251618181_);}
	.st7{fill:#1F1E1D;}
	.st8{fill:url(#SVGID_00000043437367742869182260000017057029726504320167_);}
	.st9{fill:#B5B5B6;}
	.st10{fill:#F8BF86;}
	.st11{fill:none;stroke:#FFFFFF;stroke-width:8.5039;stroke-miterlimit:10;}
	.st12{fill:#B28247;}
	.st13{fill:none;stroke:#FFFFFF;stroke-width:0.4252;stroke-miterlimit:10;}
	.st14{fill:none;stroke:#FFFFFF;stroke-width:0.7087;stroke-miterlimit:10;}
	.st15{fill:#EFEFEF;}
	.st16{fill:#DCDDDD;}
	.st17{fill:#DDDDDB;}
	.st18{fill:#FFFFFF;}
	.st19{fill:#B29A63;}
	.st20{fill:#89705C;}
	.st21{fill:none;stroke:#DCDDDD;stroke-width:0.7087;stroke-miterlimit:10;}
	
		.st22{fill:url(#SVGID_00000029025918246111705430000011706011811102941836_);stroke:#000000;stroke-width:0.2835;stroke-miterlimit:10;}
	.st23{fill:#131212;}
	.st24{fill:#388985;}
</style>
<g
   id="g737"
   transform="matrix(0.36821716,0,0,0.36821716,-24.89148,-25.775201)">
	<path
   d="M 459.2,70.1 H 87.7 C 76.8,70.1 68,78.9 68,89.7 V 338 c 0,10.8 8.8,19.6 19.6,19.6 h 371.6 c 10.8,0 19.6,-8.8 19.6,-19.6 V 89.7 C 478.9,78.9 470.1,70.1 459.2,70.1 Z M 92.4,351.4 c -6.9,0 -12.5,-5.6 -12.5,-12.5 0,-6.9 5.6,-12.5 12.5,-12.5 6.9,0 12.5,5.6 12.5,12.5 0,6.9 -5.6,12.5 -12.5,12.5 z m 0,-248.2 c -6.9,0 -12.5,-5.6 -12.5,-12.5 0,-6.9 5.6,-12.5 12.5,-12.5 6.9,0 12.5,5.6 12.5,12.5 0,6.9 -5.6,12.5 -12.5,12.5 z m 363.3,248.2 c -6.9,0 -12.5,-5.6 -12.5,-12.5 0,-6.9 5.6,-12.5 12.5,-12.5 6.9,0 12.5,5.6 12.5,12.5 0,6.9 -5.6,12.5 -12.5,12.5 z m 0,-248.2 c -6.9,0 -12.5,-5.6 -12.5,-12.5 0,-6.9 5.6,-12.5 12.5,-12.5 6.9,0 12.5,5.6 12.5,12.5 0,6.9 -5.6,12.5 -12.5,12.5 z"
   id="path4" />
	
		<rect
   x="190.60001"
   y="317.79999"
   transform="rotate(180,219.1425,320.38405)"
   class="st0"
   width="57.099998"
   height="5.3000002"
   id="rect6" />
	<path
   class="st1"
   d="m 180.8,355.8 c 0,0 -0.2,1.6 1.9,1.6 h 3.8 l 64.4,-0.2 v 0 h 6.1 l 0.2,-23 h -5.8 l -0.3,-16.4 h -3.3 v 5.3 h -57.1 v -5.3 0 h -4 v 16.4 h -5.9 z"
   id="path8" />
	<path
   class="st2"
   d="m 239.5,353.9 c 0,0 -0.6,0.9 -1.3,0.9 -0.7,0 -1.3,-0.9 -1.3,-0.9 v -22.1 h 2.5 v 22.1 z"
   id="path10" />
	<path
   class="st2"
   d="m 201,353.9 c 0,0 -0.6,0.9 -1.3,0.9 -0.7,0 -1.3,-0.9 -1.3,-0.9 v -22.1 h 2.5 v 22.1 z"
   id="path12" />
	<path
   class="st3"
   d="m 236.5,334.2 3.8,7.4 c 0,0 1.2,2.3 1.3,6.8 0,4.5 -1.5,7.2 -1.5,7.2 l 1.1,1.6 H 251 V 323 h -64.4 l 0.1,34.4 h 9.1 l 2.4,-2 c 0,0 -3.3,-7.5 -0.8,-13.8 1.7,-4.4 3.7,-7.3 3.7,-7.3 h 3.3 v 23 h 28.9 v -23.1 z"
   id="path14" />
	
		<rect
   x="237"
   y="305.79999"
   transform="rotate(180,238.74825,314.42745)"
   class="st2"
   width="3.5"
   height="17.200001"
   id="rect16" />
	
		<rect
   x="224.60001"
   y="305.79999"
   transform="rotate(180,226.3276,314.42745)"
   class="st2"
   width="3.5"
   height="17.200001"
   id="rect18" />
	
		<rect
   x="211.60001"
   y="305.79999"
   transform="rotate(180,213.32925,314.42745)"
   class="st2"
   width="3.5"
   height="17.200001"
   id="rect20" />
	
		<rect
   x="198.5"
   y="305.79999"
   transform="rotate(180,200.23465,314.42745)"
   class="st2"
   width="3.5"
   height="17.200001"
   id="rect22" />
	
		<rect
   x="365.60001"
   y="317.79999"
   transform="rotate(180,394.14825,320.38405)"
   class="st0"
   width="57.099998"
   height="5.3000002"
   id="rect24" />
	<path
   class="st1"
   d="m 355.8,355.9 c 0,0 -0.2,1.6 1.9,1.6 l 3.8,-0.1 64.4,-0.2 v 0 h 6.1 l 0.2,-23 h -5.8 l -0.3,-16.4 h -3.3 v 5.3 h -57.1 v -5.3 0 h -4 v 16.4 h -5.9 z"
   id="path26" />
	<path
   class="st2"
   d="m 414.5,353.9 c 0,0 -0.6,0.9 -1.3,0.9 -0.7,0 -1.3,-0.9 -1.3,-0.9 v -22.1 h 2.5 v 22.1 z"
   id="path28" />
	<path
   class="st2"
   d="m 376,353.9 c 0,0 -0.6,0.9 -1.3,0.9 -0.7,0 -1.3,-0.9 -1.3,-0.9 v -22.1 h 2.5 v 22.1 z"
   id="path30" />
	<path
   class="st3"
   d="m 411.5,334.2 3.8,7.4 c 0,0 1.2,2.3 1.3,6.8 0,4.5 -1.5,7.2 -1.5,7.2 l 1.1,1.6 h 9.8 l 0.1,-34.2 h -64.4 l 0.1,34.3 h 9.1 l 2.4,-1.9 c 0,0 -3.3,-7.5 -0.8,-13.8 1.7,-4.4 3.7,-7.3 3.7,-7.3 h 3.3 v 23 h 28.9 v -23.1 z"
   id="path32" />
	
		<rect
   x="412"
   y="305.79999"
   transform="rotate(180,413.754,314.42745)"
   class="st2"
   width="3.5"
   height="17.200001"
   id="rect34" />
	
		<rect
   x="399.60001"
   y="305.79999"
   transform="rotate(180,401.33335,314.42745)"
   class="st2"
   width="3.5"
   height="17.200001"
   id="rect36" />
	
		<rect
   x="386.60001"
   y="305.79999"
   transform="rotate(180,388.33505,314.42745)"
   class="st2"
   width="3.5"
   height="17.200001"
   id="rect38" />
	
		<rect
   x="373.5"
   y="305.79999"
   transform="rotate(180,375.2404,314.42745)"
   class="st2"
   width="3.5"
   height="17.200001"
   id="rect40" />
	
		<rect
   x="272.39999"
   y="317.79999"
   transform="rotate(180,306.6454,320.38405)"
   class="st0"
   width="68.400002"
   height="5.3000002"
   id="rect42" />
	<path
   class="st1"
   d="m 262.7,355.7 c 0,0 -0.2,1.6 1.9,1.6 h 3.8 l 75.6,-0.2 v 0 h 6.1 l 0.2,-23 h -5.8 l -0.3,-16.4 h -3.3 v 5.3 h -68.4 v -5.3 0 h -4 v 16.4 h -5.9 z"
   id="path44" />
	<path
   class="st2"
   d="m 332.6,353.9 c 0,0 -0.6,0.9 -1.3,0.9 -0.7,0 -1.3,-0.9 -1.3,-0.9 v -22.1 h 2.5 v 22.1 z"
   id="path46" />
	<path
   class="st2"
   d="m 282.8,353.9 c 0,0 -0.6,0.9 -1.3,0.9 -0.7,0 -1.3,-0.9 -1.3,-0.9 v -22.1 h 2.5 v 22.1 z"
   id="path48" />
	<path
   class="st3"
   d="m 329.7,334.2 3.8,7.4 c 0,0 1.2,2.3 1.3,6.8 0,4.5 -1.5,7.2 -1.5,7.2 l 1.1,1.6 h 9.8 l 0.1,-34.2 h -75.7 l 0.1,34.3 h 9.1 l 2.4,-1.9 c 0,0 -3.3,-7.5 -0.8,-13.8 1.7,-4.4 3.7,-7.3 3.7,-7.3 h 3.3 v 23 h 40.1 v -23.1 z"
   id="path50" />
	
		<rect
   x="330.10001"
   y="305.79999"
   transform="rotate(180,331.895,314.42745)"
   class="st2"
   width="3.5"
   height="17.200001"
   id="rect52" />
	
		<rect
   x="317.70001"
   y="305.79999"
   transform="rotate(180,319.44465,314.42745)"
   class="st2"
   width="3.5"
   height="17.200001"
   id="rect54" />
	
		<rect
   x="305.20001"
   y="305.79999"
   transform="rotate(180,306.9943,314.42745)"
   class="st2"
   width="3.5"
   height="17.200001"
   id="rect56" />
	
		<rect
   x="292.79999"
   y="305.79999"
   transform="rotate(180,294.544,314.42745)"
   class="st2"
   width="3.5"
   height="17.200001"
   id="rect58" />
	
		<rect
   x="280.29999"
   y="305.79999"
   transform="rotate(180,282.0937,314.42745)"
   class="st2"
   width="3.5"
   height="17.200001"
   id="rect60" />
	<rect
   x="365.10001"
   y="104.4"
   class="st0"
   width="57.099998"
   height="5.3000002"
   id="rect62" />
	<path
   class="st1"
   d="m 432,71.6 c 0,0 0.2,-1.6 -1.9,-1.6 h -3.8 L 362,70.3 v 0 h -6.1 l -0.2,23 h 5.8 l 0.3,16.4 h 3.3 v -5.3 h 57.1 v 5.3 0 h 4 V 93.3 h 5.9 z"
   id="path64" />
	<path
   class="st2"
   d="m 373.3,73.5 c 0,0 0.6,-0.9 1.3,-0.9 0.7,0 1.3,0.9 1.3,0.9 v 22.1 h -2.5 V 73.5 Z"
   id="path66" />
	<path
   class="st2"
   d="m 411.8,73.5 c 0,0 0.6,-0.9 1.3,-0.9 0.7,0 1.3,0.9 1.3,0.9 v 22.1 h -2.5 V 73.5 Z"
   id="path68" />
	<path
   class="st3"
   d="m 376.3,93.2 -3.8,-7.4 c 0,0 -1.2,-2.3 -1.3,-6.8 0,-4.5 1.5,-7.2 1.5,-7.2 l -1.1,-1.6 h -9.8 l -0.1,34.2 h 64.4 V 70 H 417 l -2.4,2 c 0,0 3.3,7.5 0.8,13.8 -1.7,4.4 -3.7,7.3 -3.7,7.3 h -3.3 v -23 h -28.9 v 23.1 z"
   id="path70" />
	<rect
   x="372.29999"
   y="104.4"
   class="st2"
   width="3.5"
   height="17.200001"
   id="rect72" />
	<rect
   x="384.70001"
   y="104.4"
   class="st2"
   width="3.5"
   height="17.200001"
   id="rect74" />
	<rect
   x="397.70001"
   y="104.4"
   class="st2"
   width="3.5"
   height="17.200001"
   id="rect76" />
	<rect
   x="410.79999"
   y="104.4"
   class="st2"
   width="3.5"
   height="17.200001"
   id="rect78" />
	<rect
   x="190.10001"
   y="104.4"
   class="st0"
   width="57.099998"
   height="5.3000002"
   id="rect80" />
	<path
   class="st1"
   d="m 257,71.6 c 0,0 0.2,-1.6 -1.9,-1.6 l -3.8,0.1 -64.3,0.2 v 0 h -6.1 l -0.2,23 h 5.8 l 0.3,16.4 h 3.3 v -5.3 h 57.1 v 5.3 0 h 4 V 93.3 h 5.9 z"
   id="path82" />
	<path
   class="st2"
   d="m 198.3,73.5 c 0,0 0.6,-0.9 1.3,-0.9 0.7,0 1.3,0.9 1.3,0.9 v 22.1 h -2.5 V 73.5 Z"
   id="path84" />
	<path
   class="st2"
   d="m 236.8,73.5 c 0,0 0.6,-0.9 1.3,-0.9 0.7,0 1.3,0.9 1.3,0.9 v 22.1 h -2.5 z"
   id="path86" />
	<path
   class="st3"
   d="m 201.3,93.2 -3.8,-7.4 c 0,0 -1.2,-2.3 -1.3,-6.8 0,-4.5 1.5,-7.2 1.5,-7.2 l -1.1,-1.6 h -9.8 l -0.1,34.2 h 64.4 L 251,70.1 h -9 l -2.4,1.9 c 0,0 3.3,7.5 0.8,13.8 -1.7,4.4 -3.7,7.3 -3.7,7.3 h -3.3 v -23 h -28.9 v 23.1 z"
   id="path88" />
	<rect
   x="197.3"
   y="104.4"
   class="st2"
   width="3.5"
   height="17.200001"
   id="rect90" />
	<rect
   x="209.7"
   y="104.4"
   class="st2"
   width="3.5"
   height="17.200001"
   id="rect92" />
	<rect
   x="222.7"
   y="104.4"
   class="st2"
   width="3.5"
   height="17.200001"
   id="rect94" />
	<rect
   x="235.8"
   y="104.4"
   class="st2"
   width="3.5"
   height="17.200001"
   id="rect96" />
	<rect
   x="272"
   y="104.4"
   class="st0"
   width="68.400002"
   height="5.3000002"
   id="rect98" />
	<path
   class="st1"
   d="m 350.2,71.7 c 0,0 0.2,-1.6 -1.9,-1.6 h -3.8 l -75.6,0.2 v 0 h -6.1 l -0.2,23 h 5.8 l 0.3,16.4 h 3.3 v -5.3 h 68.4 v 5.3 0 h 4 V 93.3 h 5.9 z"
   id="path100" />
	<path
   class="st2"
   d="m 280.2,73.5 c 0,0 0.6,-0.9 1.3,-0.9 0.7,0 1.3,0.9 1.3,0.9 v 22.1 h -2.5 z"
   id="path102" />
	<path
   class="st2"
   d="m 330,73.5 c 0,0 0.6,-0.9 1.3,-0.9 0.7,0 1.3,0.9 1.3,0.9 V 95.6 H 330 Z"
   id="path104" />
	<path
   class="st3"
   d="m 283.1,93.2 -3.8,-7.4 c 0,0 -1.2,-2.3 -1.3,-6.8 0,-4.5 1.5,-7.2 1.5,-7.2 l -1.1,-1.6 h -9.8 l -0.1,34.2 h 75.7 L 344.1,70.1 H 335 l -2.4,1.9 c 0,0 3.3,7.5 0.8,13.8 -1.7,4.4 -3.7,7.3 -3.7,7.3 h -3.3 v -23 h -40.1 v 23.1 z"
   id="path106" />
	<rect
   x="279.20001"
   y="104.4"
   class="st2"
   width="3.5"
   height="17.200001"
   id="rect108" />
	<rect
   x="291.60001"
   y="104.4"
   class="st2"
   width="3.5"
   height="17.200001"
   id="rect110" />
	<rect
   x="304.10001"
   y="104.4"
   class="st2"
   width="3.5"
   height="17.200001"
   id="rect112" />
	<rect
   x="316.5"
   y="104.4"
   class="st2"
   width="3.5"
   height="17.200001"
   id="rect114" />
	<rect
   x="329"
   y="104.4"
   class="st2"
   width="3.5"
   height="17.200001"
   id="rect116" />
	
		<rect
   x="412.20001"
   y="212.2"
   transform="rotate(90,441.18509,214.86776)"
   class="st0"
   width="58"
   height="5.3000002"
   id="rect118" />
	<path
   class="st1"
   d="m 477.3,253.8 c 0,0 1.6,0.2 1.6,-1.9 l -0.1,-3.8 -0.2,-65.4 v 0 -6.2 l -23.4,-0.2 v 5.9 l -16.7,0.4 v 3.3 h 5.3 v 58 h -5.3 v 0 4.1 h 16.6 v 6 z"
   id="path120" />
	<path
   class="st2"
   d="m 475.2,194.2 c 0,0 0.9,0.6 0.9,1.3 0,0.7 -0.9,1.3 -0.9,1.3 h -22.4 v -2.5 z"
   id="path122" />
	<path
   class="st2"
   d="m 475.2,233.3 c 0,0 0.9,0.6 0.9,1.3 0,0.7 -0.9,1.3 -0.9,1.3 h -22.4 v -2.5 h 22.4 z"
   id="path124" />
	<path
   class="st3"
   d="m 455.2,197.2 7.5,-3.9 c 0,0 2.3,-1.3 6.9,-1.3 4.5,0 7.3,1.6 7.3,1.6 l 1.7,-1.1 v -9.9 l -34.7,-0.1 v 65.4 l 34.8,-0.1 v -9.2 l -1.9,-2.4 c 0,0 -7.6,3.3 -14.1,0.8 -4.5,-1.8 -7.4,-3.8 -7.4,-3.8 v -3.3 h 23.4 v -29.3 h -23.5 z"
   id="path126" />
	
		<rect
   x="433.39999"
   y="186.2"
   transform="rotate(90,435.13314,194.94801)"
   class="st2"
   width="3.5999999"
   height="17.4"
   id="rect128" />
	
		<rect
   x="433.39999"
   y="198.8"
   transform="rotate(90,435.13319,207.56756)"
   class="st2"
   width="3.5999999"
   height="17.4"
   id="rect130" />
	
		<rect
   x="433.39999"
   y="212.10001"
   transform="rotate(90,435.13309,220.77406)"
   class="st2"
   width="3.5999999"
   height="17.4"
   id="rect132" />
	
		<rect
   x="433.39999"
   y="225.39999"
   transform="rotate(90,435.13313,234.07842)"
   class="st2"
   width="3.5999999"
   height="17.4"
   id="rect134" />
	
		<rect
   x="419"
   y="138.10001"
   transform="rotate(90,441.18512,140.78258)"
   class="st0"
   width="44.299999"
   height="5.3000002"
   id="rect136" />
	<path
   class="st1"
   d="m 477.3,172.9 c 0,0 1.6,0.2 1.6,-1.9 l -0.1,-3.8 -0.2,-51.7 v 0 -6.2 l -23.4,-0.2 v 5.9 l -16.7,0.4 v 3.3 h 5.3 V 163 h -5.3 v 0 4.1 h 16.6 v 6 z"
   id="path138" />
	<path
   class="st2"
   d="m 475.2,124.3 c 0,0 0.9,0.6 0.9,1.3 0,0.7 -0.9,1.3 -0.9,1.3 h -22.4 v -2.5 z"
   id="path140" />
	<path
   class="st2"
   d="m 475.2,153.8 c 0,0 0.9,0.6 0.9,1.3 0,0.7 -0.9,1.3 -0.9,1.3 h -22.4 v -2.5 z"
   id="path142" />
	<path
   class="st3"
   d="m 455.2,127.3 7.5,-3.9 c 0,0 2.3,-1.3 6.9,-1.3 4.5,0 7.3,1.6 7.3,1.6 l 1.7,-1.1 v -7.3 l -34.7,-0.1 v 51.7 l 34.8,-0.1 V 159 l -1.9,-2.4 c 0,0 -7.6,3.3 -14.1,0.8 -4.5,-1.8 -7.4,-3.8 -7.4,-3.8 v -3.3 h 23.4 v -19.7 h -23.5 z"
   id="path144" />
	
		<rect
   x="433.39999"
   y="123.2"
   transform="rotate(90,435.1331,131.95935)"
   class="st2"
   width="3.5999999"
   height="17.4"
   id="rect146" />
	
		<rect
   x="433.39999"
   y="134.5"
   transform="rotate(90,435.1331,143.26155)"
   class="st2"
   width="3.5999999"
   height="17.4"
   id="rect148" />
	
		<rect
   x="433.39999"
   y="145.8"
   transform="rotate(90,435.13315,154.5637)"
   class="st2"
   width="3.5999999"
   height="17.4"
   id="rect150" />
	
		<rect
   x="139"
   y="319"
   transform="rotate(180,152.19227,321.53712)"
   class="st0"
   width="26.299999"
   height="5.0999999"
   id="rect152" />
	<path
   class="st1"
   d="m 129.5,356.1 c 0,0 -0.2,1.6 1.8,1.6 l 3.7,-0.1 33.4,-0.2 v 0 h 5.9 l 0.2,-22.4 h -5.6 l -0.3,-16 h -3.2 v 5.1 H 139 v -5.1 0 h -3.9 v 16 h -5.7 z"
   id="path154" />
	<path
   class="st2"
   d="m 159.9,354.2 c 0,0 -0.5,0.9 -1.2,0.9 -0.7,0 -1.2,-0.9 -1.2,-0.9 v -21.5 h 2.4 z"
   id="path156" />
	<path
   class="st2"
   d="m 147.8,354.2 c 0,0 -0.5,0.9 -1.2,0.9 -0.7,0 -1.2,-0.9 -1.2,-0.9 v -21.5 h 2.4 z"
   id="path158" />
	<path
   class="st3"
   d="m 157,335 3.7,7.2 c 0,0 1.2,2.2 1.2,6.6 0,4.4 -1.5,7 -1.5,7 l 1,1.6 h 7 l 0.1,-33.3 h -33.4 l 0.1,33.4 h 7.5 l 2.3,-1.8 c 0,0 -3.2,-7.3 -0.8,-13.5 1.7,-4.3 3.6,-7.1 3.6,-7.1 h 3.2 l 2.7,-0.1 z"
   id="path160" />
	
		<rect
   x="157"
   y="307.39999"
   transform="rotate(180,158.70165,315.7317)"
   class="st2"
   width="3.4000001"
   height="16.700001"
   id="rect162" />
	
		<rect
   x="145.39999"
   y="307.39999"
   transform="rotate(180,147.0701,315.7317)"
   class="st2"
   width="3.4000001"
   height="16.700001"
   id="rect164" />
	
		<rect
   x="419"
   y="286.29999"
   transform="rotate(90,441.18508,288.95292)"
   class="st0"
   width="44.299999"
   height="5.3000002"
   id="rect166" />
	<path
   class="st1"
   d="m 477.3,321 c 0,0 1.6,0.2 1.6,-1.9 l -0.1,-3.8 -0.2,-51.7 v 0 -6.2 l -23.4,-0.2 v 5.9 l -16.7,0.4 v 3.3 h 5.3 v 44.3 h -5.3 v 0 4.1 h 16.6 v 6 z"
   id="path168" />
	<path
   class="st2"
   d="m 475.2,272.5 c 0,0 0.9,0.6 0.9,1.3 0,0.7 -0.9,1.3 -0.9,1.3 h -22.4 v -2.5 h 22.4 z"
   id="path170" />
	<path
   class="st2"
   d="m 475.2,302 c 0,0 0.9,0.6 0.9,1.3 0,0.7 -0.9,1.3 -0.9,1.3 H 452.8 V 302 Z"
   id="path172" />
	<path
   class="st3"
   d="m 455.2,275.5 7.5,-3.9 c 0,0 2.3,-1.3 6.9,-1.3 4.5,0 7.3,1.6 7.3,1.6 l 1.7,-1.1 v -7.3 l -34.7,-0.1 v 51.7 l 34.8,-0.1 v -7.8 l -1.9,-2.4 c 0,0 -7.6,3.3 -14.1,0.8 -4.5,-1.8 -7.4,-3.8 -7.4,-3.8 v -3.3 h 23.4 v -19.7 h -23.5 z"
   id="path174" />
	
		<rect
   x="433.39999"
   y="271.39999"
   transform="rotate(90,435.13318,280.12967)"
   class="st2"
   width="3.5999999"
   height="17.4"
   id="rect176" />
	
		<rect
   x="433.39999"
   y="282.70001"
   transform="rotate(90,435.13317,291.43188)"
   class="st2"
   width="3.5999999"
   height="17.4"
   id="rect178" />
	
		<rect
   x="433.39999"
   y="294"
   transform="rotate(90,435.13317,302.73408)"
   class="st2"
   width="3.5999999"
   height="17.4"
   id="rect180" />
	
		<rect
   x="76.199997"
   y="212.7"
   transform="rotate(-90,105.23769,215.34963)"
   class="st0"
   width="58"
   height="5.3000002"
   id="rect182" />
	<path
   class="st1"
   d="m 69.2,176.4 c 0,0 -1.6,-0.2 -1.6,1.9 l 0.1,3.8 0.2,65.4 v 0 6.2 l 23.4,0.2 V 248 l 16.7,-0.4 v -3.3 h -5.3 v -58 h 5.3 v 0 -4.1 H 91.4 v -6 z"
   id="path184" />
	<path
   class="st2"
   d="m 71.2,236 c 0,0 -0.9,-0.6 -0.9,-1.3 0,-0.7 0.9,-1.3 0.9,-1.3 h 22.4 v 2.5 z"
   id="path186" />
	<path
   class="st2"
   d="m 71.2,196.9 c 0,0 -0.9,-0.6 -0.9,-1.3 0,-0.7 0.9,-1.3 0.9,-1.3 h 22.4 v 2.5 z"
   id="path188" />
	<path
   class="st3"
   d="m 91.2,233 -7.5,3.9 c 0,0 -2.3,1.3 -6.9,1.3 -4.5,0 -7.3,-1.6 -7.3,-1.6 l -1.7,1.1 v 9.9 l 34.7,0.1 v -65.4 l -34.8,0.1 v 9.2 l 1.9,2.4 c 0,0 7.6,-3.3 14.1,-0.8 4.5,1.8 7.4,3.8 7.4,3.8 v 3.3 H 67.7 v 29.3 h 23.5 z"
   id="path190" />
	
		<rect
   x="109.5"
   y="226.60001"
   transform="rotate(-90,111.28969,235.26943)"
   class="st2"
   width="3.5999999"
   height="17.4"
   id="rect192" />
	
		<rect
   x="109.5"
   y="213.89999"
   transform="rotate(-90,111.28969,222.64983)"
   class="st2"
   width="3.5999999"
   height="17.4"
   id="rect194" />
	
		<rect
   x="109.5"
   y="200.7"
   transform="rotate(-90,111.28969,209.44333)"
   class="st2"
   width="3.5999999"
   height="17.4"
   id="rect196" />
	
		<rect
   x="109.5"
   y="187.39999"
   transform="rotate(-90,111.28964,196.13898)"
   class="st2"
   width="3.5999999"
   height="17.4"
   id="rect198" />
	
		<rect
   x="83.099998"
   y="286.79999"
   transform="rotate(-90,105.23771,289.43486)"
   class="st0"
   width="44.299999"
   height="5.3000002"
   id="rect200" />
	<path
   class="st1"
   d="m 69.2,257.3 c 0,0 -1.6,-0.2 -1.6,1.9 l 0.1,3.8 0.2,51.7 v 0 6.2 l 23.4,0.2 v -5.9 l 16.7,-0.4 v -3.3 h -5.3 v -44.3 h 5.3 v 0 -4.1 H 91.4 v -6 z"
   id="path202" />
	<path
   class="st2"
   d="m 71.2,305.9 c 0,0 -0.9,-0.6 -0.9,-1.3 0,-0.7 0.9,-1.3 0.9,-1.3 h 22.4 v 2.5 H 71.2 Z"
   id="path204" />
	<path
   class="st2"
   d="m 71.2,276.4 c 0,0 -0.9,-0.6 -0.9,-1.3 0,-0.7 0.9,-1.3 0.9,-1.3 h 22.4 v 2.5 H 71.2 Z"
   id="path206" />
	<path
   class="st3"
   d="m 91.2,302.9 -7.5,3.9 c 0,0 -2.3,1.3 -6.9,1.3 -4.5,0 -7.3,-1.6 -7.3,-1.6 l -1.7,1.1 v 7.3 l 34.7,0.1 v -51.7 l -34.8,0.1 v 7.8 l 1.9,2.4 c 0,0 7.6,-3.3 14.1,-0.8 4.5,1.8 7.4,3.8 7.4,3.8 v 3.3 H 67.7 v 19.7 h 23.5 z"
   id="path208" />
	
		<rect
   x="109.5"
   y="289.5"
   transform="rotate(-90,111.28968,298.25802)"
   class="st2"
   width="3.5999999"
   height="17.4"
   id="rect210" />
	
		<rect
   x="109.5"
   y="278.20001"
   transform="rotate(-90,111.28963,286.95587)"
   class="st2"
   width="3.5999999"
   height="17.4"
   id="rect212" />
	
		<rect
   x="109.5"
   y="266.89999"
   transform="rotate(-90,111.28963,275.65367)"
   class="st2"
   width="3.5999999"
   height="17.4"
   id="rect214" />
	
		<rect
   x="83.099998"
   y="138.60001"
   transform="rotate(-90,105.23774,141.26449)"
   class="st0"
   width="44.299999"
   height="5.3000002"
   id="rect216" />
	<path
   class="st1"
   d="m 69.2,109.2 c 0,0 -1.6,-0.2 -1.6,1.9 l 0.1,3.8 0.2,51.7 v 0 6.2 l 23.4,0.2 v -6 l 16.7,-0.4 v -3.3 h -5.3 V 119 h 5.3 v 0 -4.1 H 91.4 v -6 z"
   id="path218" />
	<path
   class="st2"
   d="m 71.2,157.8 c 0,0 -0.9,-0.6 -0.9,-1.3 0,-0.7 0.9,-1.3 0.9,-1.3 h 22.4 v 2.5 z"
   id="path220" />
	<path
   class="st2"
   d="m 71.2,128.3 c 0,0 -0.9,-0.6 -0.9,-1.3 0,-0.7 0.9,-1.3 0.9,-1.3 h 22.4 v 2.5 H 71.2 Z"
   id="path222" />
	<path
   class="st3"
   d="m 91.2,154.8 -7.5,3.9 c 0,0 -2.3,1.3 -6.9,1.3 -4.5,0 -7.3,-1.6 -7.3,-1.6 l -1.7,1.1 v 7.3 l 34.7,0.1 v -51.7 l -34.8,0.1 v 7.8 l 1.9,2.4 c 0,0 7.6,-3.3 14.1,-0.8 4.5,1.8 7.4,3.8 7.4,3.8 v 3.3 H 67.7 v 19.7 h 23.5 z"
   id="path224" />
	
		<rect
   x="109.5"
   y="141.39999"
   transform="rotate(-90,111.28965,150.08769)"
   class="st2"
   width="3.5999999"
   height="17.4"
   id="rect226" />
	
		<rect
   x="109.5"
   y="130.10001"
   transform="rotate(-90,111.28965,138.78549)"
   class="st2"
   width="3.5999999"
   height="17.4"
   id="rect228" />
	
		<rect
   x="109.5"
   y="118.8"
   transform="rotate(-90,111.28966,127.4833)"
   class="st2"
   width="3.5999999"
   height="17.4"
   id="rect230" />
	<linearGradient
   id="SVGID_1_"
   gradientUnits="userSpaceOnUse"
   x1="139.41611"
   y1="101.3205"
   x2="149.58369"
   y2="101.3205">
		<stop
   offset="0"
   style="stop-color:#898989"
   id="stop232" />
		<stop
   offset="0.1201"
   style="stop-color:#DCDDDD"
   id="stop234" />
		<stop
   offset="0.8911"
   style="stop-color:#DCDDDD"
   id="stop236" />
		<stop
   offset="1"
   style="stop-color:#898989"
   id="stop238" />
	</linearGradient>
	<path
   class="st4"
   d="m 139.4,98.7 h 1.4 c 0.1,0 0.3,0.1 0.3,0.3 v 0.9 c 0,0.1 -0.1,0.3 -0.3,0.3 h -1.4 v 3.8 h 10.2 v -3.8 h -1.4 c -0.1,0 -0.3,-0.1 -0.3,-0.3 V 99 c 0,-0.1 0.1,-0.3 0.3,-0.3 h 1.4"
   id="path241"
   style="fill:url(#SVGID_1_)" />
	
		<linearGradient
   id="SVGID_00000111902100635422582120000015751164435282272645_"
   gradientUnits="userSpaceOnUse"
   x1="139.4072"
   y1="100.0986"
   x2="139.41611"
   y2="100.0986">
		<stop
   offset="0"
   style="stop-color:#898989"
   id="stop243" />
		<stop
   offset="0.1201"
   style="stop-color:#DCDDDD"
   id="stop245" />
		<stop
   offset="0.8911"
   style="stop-color:#DCDDDD"
   id="stop247" />
		<stop
   offset="1"
   style="stop-color:#898989"
   id="stop249" />
	</linearGradient>
	
		<line
   style="fill:url(#SVGID_00000111902100635422582120000015751164435282272645_)"
   x1="139.39999"
   y1="100.1"
   x2="139.39999"
   y2="100.1"
   id="line252" />
	
		<linearGradient
   id="SVGID_00000142866108150781186320000016562403062114439614_"
   gradientUnits="userSpaceOnUse"
   x1="149.58369"
   y1="100.0986"
   x2="149.59801"
   y2="100.0986">
		<stop
   offset="0"
   style="stop-color:#898989"
   id="stop254" />
		<stop
   offset="0.1201"
   style="stop-color:#DCDDDD"
   id="stop256" />
		<stop
   offset="0.8911"
   style="stop-color:#DCDDDD"
   id="stop258" />
		<stop
   offset="1"
   style="stop-color:#898989"
   id="stop260" />
	</linearGradient>
	
		<line
   style="fill:url(#SVGID_00000142866108150781186320000016562403062114439614_)"
   x1="149.60001"
   y1="100.1"
   x2="149.60001"
   y2="100.1"
   id="line263" />
	<rect
   x="125"
   y="98.699997"
   class="st7"
   width="39.599998"
   height="5.1999998"
   id="rect265" />
	
		<linearGradient
   id="SVGID_00000049919977249972649050000014892617719014989467_"
   gradientUnits="userSpaceOnUse"
   x1="124.9643"
   y1="87.019501"
   x2="164.5182"
   y2="87.019501">
		<stop
   offset="0"
   style="stop-color:#898989"
   id="stop267" />
		<stop
   offset="0.1201"
   style="stop-color:#DCDDDD"
   id="stop269" />
		<stop
   offset="0.8911"
   style="stop-color:#DCDDDD"
   id="stop271" />
		<stop
   offset="1"
   style="stop-color:#898989"
   id="stop273" />
	</linearGradient>
	<polyline
   style="fill:url(#SVGID_00000049919977249972649050000014892617719014989467_)"
   points="149.6,98.7 157.7,98.7    157.7,103.9 164.5,103.9 164.5,70.1 125,70.1 125,103.9 132,103.9 132,98.7 139.4,98.7  "
   id="polyline276" />
	<g
   id="g282">
		<rect
   x="132.3"
   y="93"
   class="st9"
   width="7.3000002"
   height="2.8"
   id="rect278" />
		<rect
   x="149.8"
   y="93"
   class="st9"
   width="7.3000002"
   height="2.8"
   id="rect280" />
	</g>
	<path
   class="st10"
   d="m 92.4,73.5 c -9.5,0 -17.1,7.7 -17.1,17.1 0,9.5 7.7,17.1 17.1,17.1 9.5,0 17.1,-7.7 17.1,-17.1 0,-9.4 -7.7,-17.1 -17.1,-17.1 z m 0,29.7 c -6.9,0 -12.5,-5.6 -12.5,-12.5 0,-6.9 5.6,-12.5 12.5,-12.5 6.9,0 12.5,5.6 12.5,12.5 0,6.9 -5.6,12.5 -12.5,12.5 z"
   id="path284" />
	<path
   class="st10"
   d="m 455.7,73.5 c -9.5,0 -17.1,7.7 -17.1,17.1 0,9.5 7.7,17.1 17.1,17.1 9.5,0 17.1,-7.7 17.1,-17.1 0,-9.4 -7.7,-17.1 -17.1,-17.1 z m 0,29.7 c -6.9,0 -12.5,-5.6 -12.5,-12.5 0,-6.9 5.6,-12.5 12.5,-12.5 6.9,0 12.5,5.6 12.5,12.5 0,6.9 -5.6,12.5 -12.5,12.5 z"
   id="path286" />
	<path
   class="st10"
   d="m 92.4,321.7 c -9.5,0 -17.1,7.7 -17.1,17.1 0,9.5 7.7,17.1 17.1,17.1 9.5,0 17.1,-7.7 17.1,-17.1 0,-9.4 -7.7,-17.1 -17.1,-17.1 z m 0,29.7 c -6.9,0 -12.5,-5.6 -12.5,-12.5 0,-6.9 5.6,-12.5 12.5,-12.5 6.9,0 12.5,5.6 12.5,12.5 0,6.9 -5.6,12.5 -12.5,12.5 z"
   id="path288" />
	<path
   class="st10"
   d="m 455.7,321.7 c -9.5,0 -17.1,7.7 -17.1,17.1 0,9.5 7.7,17.1 17.1,17.1 9.5,0 17.1,-7.7 17.1,-17.1 0,-9.4 -7.7,-17.1 -17.1,-17.1 z m 0,29.7 c -6.9,0 -12.5,-5.6 -12.5,-12.5 0,-6.9 5.6,-12.5 12.5,-12.5 6.9,0 12.5,5.6 12.5,12.5 0,6.9 -5.6,12.5 -12.5,12.5 z"
   id="path290" />
	<g
   id="g304">
		<rect
   x="202.5"
   y="132.5"
   class="st11"
   width="211"
   height="162.7"
   id="rect292" />
		<rect
   x="202.5"
   y="132.5"
   class="st7"
   width="211"
   height="162.7"
   id="rect294" />
		<rect
   x="386.20001"
   y="132.5"
   width="27.299999"
   height="162.7"
   id="rect296" />
		<rect
   x="413.5"
   y="142"
   width="4"
   height="32.599998"
   id="rect298" />
		<rect
   x="413.5"
   y="172.5"
   class="st12"
   width="4"
   height="82.800003"
   id="rect300" />
		<rect
   x="413.5"
   y="254"
   width="4"
   height="32.599998"
   id="rect302" />
	</g>
	
		<rect
   x="185.60001"
   y="202.7"
   transform="rotate(90,188.32045,208.15375)"
   class="st13"
   width="5.4000001"
   height="10.9"
   id="rect306" />
	<rect
   x="135.3"
   y="165.60001"
   class="st14"
   width="5.5"
   height="10.8"
   id="rect308" />
	<rect
   x="141.2"
   y="196.5"
   class="st15"
   width="7.3000002"
   height="6.9000001"
   id="rect310" />
	<rect
   x="141.2"
   y="219.2"
   class="st15"
   width="7.3000002"
   height="6.9000001"
   id="rect312" />
	<rect
   x="185.2"
   y="120.5"
   class="st16"
   width="6.4000001"
   height="17.799999"
   id="rect314" />
	<rect
   x="164.2"
   y="147.60001"
   class="st7"
   width="25.299999"
   height="25.299999"
   id="rect316" />
	<g
   id="g350">
		<g
   id="g332">
			<rect
   x="168.2"
   y="145.89999"
   class="st17"
   width="1.4"
   height="1.7"
   id="rect318" />
			<rect
   x="170.8"
   y="145.89999"
   class="st17"
   width="1.4"
   height="1.7"
   id="rect320" />
			<rect
   x="173.5"
   y="145.89999"
   class="st17"
   width="1.4"
   height="1.7"
   id="rect322" />
			<rect
   x="176.2"
   y="145.89999"
   class="st17"
   width="1.4"
   height="1.7"
   id="rect324" />
			<rect
   x="178.8"
   y="145.89999"
   class="st17"
   width="1.4"
   height="1.7"
   id="rect326" />
			<rect
   x="181.5"
   y="145.89999"
   class="st17"
   width="1.4"
   height="1.7"
   id="rect328" />
			<rect
   x="184.10001"
   y="145.89999"
   class="st17"
   width="1.4"
   height="1.7"
   id="rect330" />
		</g>
		<g
   id="g348">
			<rect
   x="168.2"
   y="172.89999"
   class="st17"
   width="1.4"
   height="1.7"
   id="rect334" />
			<rect
   x="170.8"
   y="172.89999"
   class="st17"
   width="1.4"
   height="1.7"
   id="rect336" />
			<rect
   x="173.5"
   y="172.89999"
   class="st17"
   width="1.4"
   height="1.7"
   id="rect338" />
			<rect
   x="176.2"
   y="172.89999"
   class="st17"
   width="1.4"
   height="1.7"
   id="rect340" />
			<rect
   x="178.8"
   y="172.89999"
   class="st17"
   width="1.4"
   height="1.7"
   id="rect342" />
			<rect
   x="181.5"
   y="172.89999"
   class="st17"
   width="1.4"
   height="1.7"
   id="rect344" />
			<rect
   x="184.10001"
   y="172.89999"
   class="st17"
   width="1.4"
   height="1.7"
   id="rect346" />
		</g>
	</g>
	<g
   id="g384">
		<g
   id="g366">
			
				<rect
   x="189.7"
   y="151.5"
   transform="rotate(90,190.3734,152.2908)"
   class="st17"
   width="1.4"
   height="1.7"
   id="rect352" />
			
				<rect
   x="189.7"
   y="154.10001"
   transform="rotate(90,190.3734,154.9498)"
   class="st17"
   width="1.4"
   height="1.7"
   id="rect354" />
			
				<rect
   x="189.7"
   y="156.8"
   transform="rotate(90,190.37335,157.60885)"
   class="st17"
   width="1.4"
   height="1.7"
   id="rect356" />
			
				<rect
   x="189.7"
   y="159.39999"
   transform="rotate(90,190.37335,160.26785)"
   class="st17"
   width="1.4"
   height="1.7"
   id="rect358" />
			
				<rect
   x="189.7"
   y="162.10001"
   transform="rotate(90,190.3734,162.9269)"
   class="st17"
   width="1.4"
   height="1.7"
   id="rect360" />
			
				<rect
   x="189.7"
   y="164.8"
   transform="rotate(90,190.3734,165.5859)"
   class="st17"
   width="1.4"
   height="1.7"
   id="rect362" />
			
				<rect
   x="189.7"
   y="167.39999"
   transform="rotate(90,190.37335,168.24495)"
   class="st17"
   width="1.4"
   height="1.7"
   id="rect364" />
		</g>
		<g
   id="g382">
			
				<rect
   x="162.7"
   y="151.5"
   transform="rotate(90,163.37665,152.29075)"
   class="st17"
   width="1.4"
   height="1.7"
   id="rect368" />
			
				<rect
   x="162.7"
   y="154.10001"
   transform="rotate(90,163.3766,154.9498)"
   class="st17"
   width="1.4"
   height="1.7"
   id="rect370" />
			
				<rect
   x="162.7"
   y="156.8"
   transform="rotate(90,163.37665,157.60885)"
   class="st17"
   width="1.4"
   height="1.7"
   id="rect372" />
			
				<rect
   x="162.7"
   y="159.39999"
   transform="rotate(90,163.37665,160.26785)"
   class="st17"
   width="1.4"
   height="1.7"
   id="rect374" />
			
				<rect
   x="162.7"
   y="162.10001"
   transform="rotate(90,163.3766,162.9269)"
   class="st17"
   width="1.4"
   height="1.7"
   id="rect376" />
			
				<rect
   x="162.7"
   y="164.8"
   transform="rotate(90,163.37665,165.58595)"
   class="st17"
   width="1.4"
   height="1.7"
   id="rect378" />
			
				<rect
   x="162.7"
   y="167.39999"
   transform="rotate(90,163.37665,168.24495)"
   class="st17"
   width="1.4"
   height="1.7"
   id="rect380" />
		</g>
	</g>
	<rect
   x="173"
   y="121.8"
   class="st7"
   width="5.6999998"
   height="15.5"
   id="rect386" />
	<rect
   x="178.7"
   y="128.60001"
   class="st16"
   width="4.1999998"
   height="2.5"
   id="rect388" />
	<rect
   x="168.8"
   y="123.9"
   class="st16"
   width="4.1999998"
   height="2.5"
   id="rect390" />
	<rect
   x="168.8"
   y="133.39999"
   class="st16"
   width="4.1999998"
   height="2.5"
   id="rect392" />
	<rect
   x="169.8"
   y="222.2"
   class="st7"
   width="8.3999996"
   height="15.5"
   id="rect394" />
	<g
   id="g400">
		<rect
   x="178.2"
   y="223.7"
   class="st17"
   width="4.1999998"
   height="2.5"
   id="rect396" />
		<rect
   x="178.2"
   y="233.60001"
   class="st17"
   width="4.1999998"
   height="2.5"
   id="rect398" />
	</g>
	<g
   id="g408">
		<rect
   x="164.89999"
   y="228.60001"
   class="st17"
   width="5"
   height="2.5"
   id="rect402" />
		<rect
   x="164.89999"
   y="224"
   class="st17"
   width="5"
   height="2.5"
   id="rect404" />
		<rect
   x="164.89999"
   y="233.39999"
   class="st17"
   width="5"
   height="2.5"
   id="rect406" />
	</g>
	<rect
   x="185.2"
   y="124"
   class="st18"
   width="6.4000001"
   height="11.2"
   id="rect410" />
	<rect
   x="185.2"
   y="126.8"
   class="st7"
   width="6.4000001"
   height="5.3000002"
   id="rect412" />
	<g
   id="g416">
		<path
   class="st18"
   d="m 190.3,131 -0.4,-0.3 c 0.3,-0.3 0.5,-0.6 0.5,-1.1 0,-0.5 -0.4,-0.9 -1,-0.9 -0.6,0 -1,0.4 -1,0.9 0,0.3 0.1,0.5 0.3,0.7 l -0.2,0.3 -2.1,-0.1 v -2.1 h 0.5 v 1.7 l 1.3,0.1 c -0.1,-0.2 -0.2,-0.4 -0.2,-0.7 0,-0.7 0.4,-1.3 1.4,-1.3 1,0 1.5,0.7 1.5,1.4 0,0.7 -0.3,1.1 -0.6,1.4 z"
   id="path414" />
	</g>
	<rect
   x="144.39999"
   y="123.6"
   class="st16"
   width="5.5"
   height="4.5999999"
   id="rect418" />
	<rect
   x="144.39999"
   y="132.8"
   class="st16"
   width="5.5"
   height="4.5999999"
   id="rect420" />
	<rect
   x="145.10001"
   y="127.3"
   class="st7"
   width="4.0999999"
   height="6.5"
   id="rect422" />
	<rect
   x="136.2"
   y="148.89999"
   class="st16"
   width="3.9000001"
   height="12.9"
   id="rect424" />
	<path
   class="st18"
   d="m 139.6,158.4 h -2.8 c -0.3,0 -0.5,-0.2 -0.5,-0.5 V 152 c 0,-0.3 0.2,-0.5 0.5,-0.5 h 2.8 c 0.3,0 0.5,0.2 0.5,0.5 v 5.9 c 0,0.3 -0.3,0.5 -0.5,0.5 z"
   id="path426" />
	<rect
   x="136.2"
   y="152.5"
   class="st7"
   width="3.9000001"
   height="4.9000001"
   id="rect428" />
	<rect
   x="161.89999"
   y="129.2"
   class="st16"
   width="2.5"
   height="2.0999999"
   id="rect430" />
	<rect
   x="161.89999"
   y="134.10001"
   class="st16"
   width="2.5"
   height="2.0999999"
   id="rect432" />
	<rect
   x="161.89999"
   y="131.3"
   class="st7"
   width="2.5"
   height="2.8"
   id="rect434" />
	<rect
   x="160.60001"
   y="127.3"
   class="st13"
   width="5.4000001"
   height="10.9"
   id="rect436" />
	<g
   id="g444">
		
			<rect
   x="174.7"
   y="189.39999"
   transform="rotate(90,176.15025,190.64285)"
   class="st16"
   width="2.9000001"
   height="2.4000001"
   id="rect438" />
		
			<rect
   x="169.10001"
   y="189.39999"
   transform="rotate(90,170.52755,190.64285)"
   class="st16"
   width="2.9000001"
   height="2.4000001"
   id="rect440" />
		
			<rect
   x="171.89999"
   y="189"
   transform="rotate(90,173.3389,190.6429)"
   class="st19"
   width="2.9000001"
   height="3.2"
   id="rect442" />
	</g>
	<path
   class="st13"
   d="m 167.9,193.3 c 0,0 -1.1,-1 -1.1,-2.7 0,-1.7 1.1,-2.7 1.1,-2.7 h 10.7 v 5.4 z"
   id="path446" />
	<g
   id="g454">
		
			<rect
   x="174.7"
   y="198"
   transform="rotate(90,176.15025,199.20265)"
   class="st16"
   width="2.9000001"
   height="2.4000001"
   id="rect448" />
		
			<rect
   x="169.10001"
   y="198"
   transform="rotate(90,170.52755,199.20265)"
   class="st16"
   width="2.9000001"
   height="2.4000001"
   id="rect450" />
		
			<rect
   x="171.89999"
   y="197.60001"
   transform="rotate(90,173.33895,199.20265)"
   class="st19"
   width="2.9000001"
   height="3.2"
   id="rect452" />
	</g>
	<path
   class="st13"
   d="m 167.9,201.9 c 0,0 -1.1,-1 -1.1,-2.7 0,-1.7 1.1,-2.7 1.1,-2.7 h 10.7 v 5.4 z"
   id="path456" />
	<g
   id="g464">
		
			<rect
   x="174.7"
   y="206.89999"
   transform="rotate(90,176.14395,208.15375)"
   class="st16"
   width="2.9000001"
   height="2.4000001"
   id="rect458" />
		
			<rect
   x="169"
   y="206.89999"
   transform="rotate(90,170.5213,208.1537)"
   class="st16"
   width="2.9000001"
   height="2.4000001"
   id="rect460" />
		
			<rect
   x="171.89999"
   y="206.5"
   transform="rotate(90,173.33265,208.15375)"
   class="st19"
   width="2.9000001"
   height="3.2"
   id="rect462" />
	</g>
	<path
   class="st13"
   d="m 167.9,210.8 c 0,0 -1.1,-1 -1.1,-2.7 0,-1.7 1.1,-2.7 1.1,-2.7 h 10.7 v 5.4 z"
   id="path466" />
	<g
   id="g474">
		
			<rect
   x="174.7"
   y="215.3"
   transform="rotate(90,176.15025,216.51785)"
   class="st16"
   width="2.9000001"
   height="2.4000001"
   id="rect468" />
		
			<rect
   x="169.10001"
   y="215.3"
   transform="rotate(90,170.52755,216.51785)"
   class="st16"
   width="2.9000001"
   height="2.4000001"
   id="rect470" />
		
			<rect
   x="171.89999"
   y="214.89999"
   transform="rotate(90,173.3389,216.5179)"
   class="st19"
   width="2.9000001"
   height="3.2"
   id="rect472" />
	</g>
	<path
   class="st13"
   d="m 167.9,219.2 c 0,0 -1.1,-1 -1.1,-2.7 0,-1.7 1.1,-2.7 1.1,-2.7 h 10.7 v 5.4 z"
   id="path476" />
	<g
   id="g484">
		
			<rect
   x="135.5"
   y="284"
   transform="rotate(90,136.93255,285.17925)"
   class="st16"
   width="2.9000001"
   height="2.4000001"
   id="rect478" />
		
			<rect
   x="129.8"
   y="284"
   transform="rotate(90,131.30985,285.17925)"
   class="st16"
   width="2.9000001"
   height="2.4000001"
   id="rect480" />
		
			<rect
   x="132.60001"
   y="283.60001"
   transform="rotate(90,134.12125,285.17925)"
   class="st19"
   width="2.9000001"
   height="3.2"
   id="rect482" />
	</g>
	<path
   class="st13"
   d="m 128.7,287.9 c 0,0 -1.1,-1 -1.1,-2.7 0,-1.7 1.1,-2.7 1.1,-2.7 h 10.7 v 5.4 z"
   id="path486" />
	<g
   id="g494">
		
			<rect
   x="149.3"
   y="284"
   transform="rotate(90,150.75355,285.17925)"
   class="st16"
   width="2.9000001"
   height="2.4000001"
   id="rect488" />
		
			<rect
   x="143.7"
   y="284"
   transform="rotate(90,145.1309,285.1793)"
   class="st16"
   width="2.9000001"
   height="2.4000001"
   id="rect490" />
		
			<rect
   x="146.5"
   y="283.60001"
   transform="rotate(90,147.94225,285.17925)"
   class="st19"
   width="2.9000001"
   height="3.2"
   id="rect492" />
	</g>
	<path
   class="st13"
   d="m 142.5,287.9 c 0,0 -1.1,-1 -1.1,-2.7 0,-1.7 1.1,-2.7 1.1,-2.7 h 10.7 v 5.4 z"
   id="path496" />
	<g
   id="g504">
		
			<rect
   x="171.5"
   y="285.20001"
   transform="rotate(90,172.92555,286.39775)"
   class="st16"
   width="2.9000001"
   height="2.4000001"
   id="rect498" />
		
			<rect
   x="165.8"
   y="285.20001"
   transform="rotate(90,167.3029,286.3978)"
   class="st16"
   width="2.9000001"
   height="2.4000001"
   id="rect500" />
		
			<rect
   x="168.60001"
   y="284.79999"
   transform="rotate(90,170.11425,286.39775)"
   class="st19"
   width="2.9000001"
   height="3.2"
   id="rect502" />
	</g>
	<path
   class="st13"
   d="m 164.6,289.1 c 0,0 -1.1,-1 -1.1,-2.7 0,-1.7 1.1,-2.7 1.1,-2.7 h 10.7 v 5.4 z"
   id="path506" />
	
		<rect
   x="174.3"
   y="180.39999"
   transform="rotate(90,175.73445,181.64285)"
   class="st16"
   width="2.9000001"
   height="2.4000001"
   id="rect508" />
	
		<rect
   x="168.60001"
   y="180.39999"
   transform="rotate(90,170.11185,181.64285)"
   class="st16"
   width="2.9000001"
   height="2.4000001"
   id="rect510" />
	
		<rect
   x="171.5"
   y="180"
   transform="rotate(90,172.92315,181.64285)"
   class="st7"
   width="2.9000001"
   height="3.2"
   id="rect512" />
	
		<rect
   x="170.2"
   y="176.2"
   transform="rotate(90,172.92315,181.64285)"
   class="st13"
   width="5.4000001"
   height="10.9"
   id="rect514" />
	
		<rect
   x="189.7"
   y="206.89999"
   transform="rotate(90,191.13175,208.15375)"
   class="st16"
   width="2.9000001"
   height="2.4000001"
   id="rect516" />
	
		<rect
   x="184"
   y="206.89999"
   transform="rotate(90,185.5091,208.1537)"
   class="st16"
   width="2.9000001"
   height="2.4000001"
   id="rect518" />
	
		<rect
   x="186.8"
   y="206.5"
   transform="rotate(90,188.32045,208.15375)"
   class="st7"
   width="2.9000001"
   height="3.2"
   id="rect520" />
	
		<rect
   x="190.10001"
   y="180.89999"
   transform="rotate(90,191.8946,182.4051)"
   class="st16"
   width="3.5"
   height="3.0999999"
   id="rect522" />
	
		<rect
   x="183"
   y="180.89999"
   transform="rotate(90,184.7463,182.4051)"
   class="st16"
   width="3.5"
   height="3.0999999"
   id="rect524" />
	
		<rect
   x="186.60001"
   y="179.89999"
   transform="rotate(90,188.3666,182.4051)"
   class="st7"
   width="3.5"
   height="5"
   id="rect526" />
	
		<rect
   x="190.10001"
   y="186.39999"
   transform="rotate(90,191.89455,187.95265)"
   class="st16"
   width="3.5"
   height="3.0999999"
   id="rect528" />
	
		<rect
   x="183"
   y="186.39999"
   transform="rotate(90,184.74635,187.95265)"
   class="st16"
   width="3.5"
   height="3.0999999"
   id="rect530" />
	
		<rect
   x="186.60001"
   y="185.5"
   transform="rotate(90,188.36655,187.95265)"
   class="st7"
   width="3.5"
   height="5"
   id="rect532" />
	
		<rect
   x="190.10001"
   y="190.60001"
   transform="rotate(90,191.8946,192.1146)"
   class="st16"
   width="3.5"
   height="3.0999999"
   id="rect534" />
	
		<rect
   x="183"
   y="190.60001"
   transform="rotate(90,184.7463,192.1146)"
   class="st16"
   width="3.5"
   height="3.0999999"
   id="rect536" />
	
		<rect
   x="186.60001"
   y="189.60001"
   transform="rotate(90,188.36655,192.11455)"
   class="st7"
   width="3.5"
   height="5"
   id="rect538" />
	
		<rect
   x="190.10001"
   y="195"
   transform="rotate(90,191.89455,196.51245)"
   class="st16"
   width="3.5"
   height="3.0999999"
   id="rect540" />
	
		<rect
   x="183"
   y="195"
   transform="rotate(90,184.7463,196.5124)"
   class="st16"
   width="3.5"
   height="3.0999999"
   id="rect542" />
	
		<rect
   x="186.60001"
   y="194"
   transform="rotate(90,188.36655,196.51245)"
   class="st7"
   width="3.5"
   height="5"
   id="rect544" />
	
		<rect
   x="189.7"
   y="215.3"
   transform="rotate(90,191.13175,216.51785)"
   class="st16"
   width="2.9000001"
   height="2.4000001"
   id="rect546" />
	
		<rect
   x="184"
   y="215.3"
   transform="rotate(90,185.5091,216.5179)"
   class="st16"
   width="2.9000001"
   height="2.4000001"
   id="rect548" />
	
		<rect
   x="186.8"
   y="214.89999"
   transform="rotate(90,188.32045,216.51785)"
   class="st7"
   width="2.9000001"
   height="3.2"
   id="rect550" />
	
		<rect
   x="185.60001"
   y="211.10001"
   transform="rotate(90,188.32045,216.51785)"
   class="st13"
   width="5.4000001"
   height="10.9"
   id="rect552" />
	
		<rect
   x="184.89999"
   y="285.20001"
   transform="rotate(90,186.33615,286.39775)"
   class="st16"
   width="2.9000001"
   height="2.4000001"
   id="rect554" />
	
		<rect
   x="179.2"
   y="285.20001"
   transform="rotate(90,180.71355,286.39775)"
   class="st16"
   width="2.9000001"
   height="2.4000001"
   id="rect556" />
	
		<rect
   x="182.10001"
   y="284.79999"
   transform="rotate(90,183.52485,286.39775)"
   class="st7"
   width="2.9000001"
   height="3.2"
   id="rect558" />
	
		<rect
   x="180.8"
   y="280.89999"
   transform="rotate(90,183.52485,286.39775)"
   class="st13"
   width="5.4000001"
   height="10.9"
   id="rect560" />
	<rect
   x="153.89999"
   y="129.2"
   class="st16"
   width="2.5"
   height="2.0999999"
   id="rect562" />
	<rect
   x="153.89999"
   y="134.10001"
   class="st16"
   width="2.5"
   height="2.0999999"
   id="rect564" />
	<rect
   x="153.89999"
   y="131.3"
   class="st7"
   width="2.5"
   height="2.8"
   id="rect566" />
	<rect
   x="152.5"
   y="127.3"
   class="st13"
   width="5.4000001"
   height="10.9"
   id="rect568" />
	<rect
   x="143.2"
   y="121.9"
   class="st13"
   width="7.8000002"
   height="16.9"
   id="rect570" />
	<rect
   x="134.60001"
   y="147.60001"
   class="st14"
   width="7.0999999"
   height="15.8"
   id="rect572" />
	<rect
   x="145.5"
   y="148.89999"
   class="st16"
   width="3.9000001"
   height="12.9"
   id="rect574" />
	<path
   class="st18"
   d="M 148.9,158.4 H 146 c -0.3,0 -0.5,-0.2 -0.5,-0.5 V 152 c 0,-0.3 0.2,-0.5 0.5,-0.5 h 2.8 c 0.3,0 0.5,0.2 0.5,0.5 v 5.9 c 0.1,0.3 -0.1,0.5 -0.4,0.5 z"
   id="path576" />
	<rect
   x="145.5"
   y="152.5"
   class="st7"
   width="3.9000001"
   height="4.9000001"
   id="rect578" />
	<rect
   x="143.89999"
   y="147.60001"
   class="st14"
   width="7.0999999"
   height="15.8"
   id="rect580" />
	<rect
   x="136.8"
   y="166.5"
   class="st16"
   width="2.3"
   height="8.3000002"
   id="rect582" />
	<rect
   x="136.8"
   y="169.39999"
   class="st7"
   width="2.3"
   height="2.5999999"
   id="rect584" />
	<rect
   x="146.3"
   y="166.89999"
   class="st16"
   width="2.3"
   height="8.3000002"
   id="rect586" />
	<rect
   x="146.3"
   y="169.8"
   class="st7"
   width="2.3"
   height="2.5999999"
   id="rect588" />
	<path
   class="st14"
   d="m 148.3,176.9 h -1.6 c -1.1,0 -2,-0.9 -2,-2 v -8.2 c 0,-1.1 0.9,-2 2,-2 h 1.6 c 1.1,0 2,0.9 2,2 v 8.2 c 0,1.1 -0.9,2 -2,2 z"
   id="path590" />
	<rect
   x="155.3"
   y="166.7"
   class="st16"
   width="2.5999999"
   height="8.6000004"
   id="rect592" />
	<rect
   x="155.3"
   y="169.5"
   class="st7"
   width="2.5999999"
   height="2.5999999"
   id="rect594" />
	<path
   class="st14"
   d="m 157.2,176.9 h -1.6 c -1.1,0 -2,-0.9 -2,-2 v -8.2 c 0,-1.1 0.9,-2 2,-2 h 1.6 c 1.1,0 2,0.9 2,2 v 8.2 c 0,1.1 -0.9,2 -2,2 z"
   id="path596" />
	<rect
   x="189.10001"
   y="225.8"
   class="st16"
   width="2.5999999"
   height="8.6000004"
   id="rect598" />
	<rect
   x="189.10001"
   y="228.3"
   class="st20"
   width="2.5999999"
   height="3.5"
   id="rect600" />
	<path
   class="st14"
   d="m 191.2,236 h -1.6 c -1.1,0 -2,-0.9 -2,-2 v -8.2 c 0,-1.1 0.9,-2 2,-2 h 1.6 c 1.1,0 2,0.9 2,2 v 8.2 c -0.1,1.1 -0.9,2 -2,2 z"
   id="path602" />
	
		<rect
   x="130.8"
   y="232.60001"
   transform="rotate(90,132.0955,236.9146)"
   class="st16"
   width="2.5999999"
   height="8.6000004"
   id="rect604" />
	
		<rect
   x="130.8"
   y="235.2"
   transform="rotate(90,132.0955,236.9146)"
   class="st20"
   width="2.5999999"
   height="3.5"
   id="rect606" />
	<path
   class="st21"
   d="M 126.2,238.8 V 235 c 0,-0.5 0.4,-0.9 0.9,-0.9 h 10.5 c 0.5,0 0.9,0.4 0.9,0.9 v 3.8 c 0,0.5 -0.4,0.9 -0.9,0.9 H 127 c -0.4,0 -0.8,-0.4 -0.8,-0.9 z"
   id="path608" />
	
		<rect
   x="130.8"
   y="239.89999"
   transform="rotate(90,132.0955,244.1537)"
   class="st16"
   width="2.5999999"
   height="8.6000004"
   id="rect610" />
	
		<rect
   x="130.8"
   y="242.39999"
   transform="rotate(90,132.0955,244.1537)"
   class="st7"
   width="2.5999999"
   height="3.5"
   id="rect612" />
	<path
   class="st21"
   d="m 126.2,246.1 v -3.8 c 0,-0.5 0.4,-0.9 0.9,-0.9 h 10.5 c 0.5,0 0.9,0.4 0.9,0.9 v 3.8 c 0,0.5 -0.4,0.9 -0.9,0.9 H 127 c -0.4,-0.1 -0.8,-0.5 -0.8,-0.9 z"
   id="path614" />
	
		<rect
   x="130.8"
   y="247.60001"
   transform="rotate(90,132.0955,251.9309)"
   class="st16"
   width="2.5999999"
   height="8.6000004"
   id="rect616" />
	
		<rect
   x="130.8"
   y="250.2"
   transform="rotate(90,132.0955,251.9309)"
   class="st7"
   width="2.5999999"
   height="3.5"
   id="rect618" />
	<path
   class="st21"
   d="M 126.2,253.9 V 250 c 0,-0.5 0.4,-0.9 0.9,-0.9 h 10.5 c 0.5,0 0.9,0.4 0.9,0.9 v 3.8 c 0,0.5 -0.4,0.9 -0.9,0.9 H 127 c -0.4,0 -0.8,-0.4 -0.8,-0.8 z"
   id="path620" />
	
		<rect
   x="130.8"
   y="254.89999"
   transform="rotate(90,132.0955,259.17)"
   class="st16"
   width="2.5999999"
   height="8.6000004"
   id="rect622" />
	
		<rect
   x="130.8"
   y="257.39999"
   transform="rotate(90,132.0955,259.17)"
   class="st7"
   width="2.5999999"
   height="3.5"
   id="rect624" />
	<path
   class="st21"
   d="m 126.2,261.1 v -3.8 c 0,-0.5 0.4,-0.9 0.9,-0.9 h 10.5 c 0.5,0 0.9,0.4 0.9,0.9 v 3.8 c 0,0.5 -0.4,0.9 -0.9,0.9 H 127 c -0.4,-0.1 -0.8,-0.4 -0.8,-0.9 z"
   id="path626" />
	<polygon
   class="st2"
   points="148.6,221.9 150.9,221.9 150.9,218.8 152.2,218.3 152.2,205.1 151.1,205.1 151.1,201.7 148.9,201.7 148.9,203 146.5,203 146.3,202.1 143.3,202.1 142.9,203 140.7,203 140.7,201.6 138.6,201.6 138.6,204.9 137.6,204.9 137.4,218.5 138.5,219.1 138.5,221.7 140.6,221.7 140.6,220 143.1,220 143.1,221.8 146.1,221.8 146.1,220.1 148.6,220.1 "
   id="polygon628" />
	
		<radialGradient
   id="SVGID_00000068678251815633777690000008851235671832072838_"
   cx="144.9082"
   cy="211.87109"
   r="4.6466999"
   gradientUnits="userSpaceOnUse">
		<stop
   offset="0.7542"
   style="stop-color:#4F4C4B"
   id="stop630" />
		<stop
   offset="1"
   style="stop-color:#1F1E1D"
   id="stop632" />
	</radialGradient>
	
		<circle
   style="fill:url(#SVGID_00000068678251815633777690000008851235671832072838_);stroke:#000000;stroke-width:0.2835;stroke-miterlimit:10"
   cx="144.89999"
   cy="211.89999"
   r="4.5999999"
   id="circle635" />
	<g
   id="g647">
		<path
   class="st18"
   d="m 136.7,218.3 -1.9,1.1 v 0.8 h 1.9 v 0.6 h -4.4 v -1.4 c 0,-0.9 0.3,-1.5 1.2,-1.5 0.7,0 1.1,0.4 1.2,1 l 1.9,-1.1 v 0.5 z m -2.3,1.8 v -0.7 c 0,-0.7 -0.3,-1.1 -0.8,-1.1 -0.6,0 -0.8,0.4 -0.8,1.1 v 0.7 z"
   id="path637" />
		<path
   class="st18"
   d="m 132.4,216.7 v -2.5 h 0.5 v 2 h 1.4 v -1.7 h 0.5 v 1.7 h 1.6 v -2 h 0.5 v 2.6 h -4.5 z"
   id="path639" />
		<path
   class="st18"
   d="m 136.2,213.4 -0.4,-0.3 c 0.3,-0.3 0.5,-0.8 0.5,-1.2 0,-0.6 -0.3,-0.9 -0.7,-0.9 -0.5,0 -0.6,0.3 -0.8,0.7 l -0.3,0.6 c -0.2,0.4 -0.5,0.9 -1.1,0.9 -0.7,0 -1.2,-0.6 -1.2,-1.4 0,-0.5 0.2,-1 0.5,-1.3 l 0.4,0.3 c -0.3,0.3 -0.4,0.6 -0.4,1 0,0.5 0.3,0.8 0.6,0.8 0.4,0 0.6,-0.4 0.7,-0.7 l 0.3,-0.6 c 0.2,-0.5 0.5,-0.9 1.2,-0.9 0.7,0 1.2,0.6 1.2,1.5 0.1,0.6 -0.1,1.1 -0.5,1.5 z"
   id="path641" />
		<path
   class="st18"
   d="m 132.4,209.3 v -2.5 h 0.5 v 2 h 1.4 v -1.7 h 0.5 v 1.7 h 1.6 v -2 h 0.5 v 2.6 h -4.5 z"
   id="path643" />
		<path
   class="st18"
   d="m 132.8,204.7 v 1.3 h -0.5 v -3.2 h 0.5 v 1.3 h 3.9 v 0.6 z"
   id="path645" />
	</g>
	<polyline
   class="st14"
   points="186.2,252 195.2,252 195.2,241.1 186.2,241.1  "
   id="polyline649" />
	<rect
   x="178.8"
   y="242.3"
   class="st20"
   width="10.6"
   height="7.6999998"
   id="rect651" />
	<rect
   x="189.39999"
   y="242.3"
   class="st16"
   width="5"
   height="7.6999998"
   id="rect653" />
	<rect
   x="173.7"
   y="242.3"
   class="st16"
   width="5"
   height="7.6999998"
   id="rect655" />
	<polyline
   class="st14"
   points="156.6,241.1 147.7,241.1 147.7,252 156.6,252  "
   id="polyline657" />
	<line
   class="st14"
   x1="158.5"
   y1="252"
   x2="184.10001"
   y2="252"
   id="line659" />
	<line
   class="st14"
   x1="184.10001"
   y1="241.10001"
   x2="158.5"
   y2="241.10001"
   id="line661" />
	<rect
   x="154"
   y="242.3"
   class="st20"
   width="10.6"
   height="7.6999998"
   id="rect663" />
	<rect
   x="164.60001"
   y="242.3"
   class="st16"
   width="5"
   height="7.6999998"
   id="rect665" />
	<rect
   x="149"
   y="242.3"
   class="st16"
   width="5"
   height="7.6999998"
   id="rect667" />
	<polyline
   class="st14"
   points="137.2,290.9 127.3,290.9 127.3,304.7 137.2,304.7  "
   id="polyline669" />
	<polyline
   class="st14"
   points="142.3,304.7 152.2,304.7 152.2,290.9 142.3,290.9  "
   id="polyline671" />
	<rect
   x="145.5"
   y="292.20001"
   class="st16"
   width="5.5999999"
   height="10.8"
   id="rect673" />
	<rect
   x="128.2"
   y="292.20001"
   class="st16"
   width="5.5999999"
   height="10.8"
   id="rect675" />
	<rect
   x="142.10001"
   y="267.39999"
   class="st7"
   width="13.7"
   height="7.0999999"
   id="rect677" />
	<rect
   x="143"
   y="261.89999"
   class="st17"
   width="1.2"
   height="5.4000001"
   id="rect679" />
	<rect
   x="146.3"
   y="261.89999"
   class="st17"
   width="1.2"
   height="5.4000001"
   id="rect681" />
	<rect
   x="149.7"
   y="261.89999"
   class="st17"
   width="1.2"
   height="5.4000001"
   id="rect683" />
	<rect
   x="153.2"
   y="261.89999"
   class="st17"
   width="1.2"
   height="5.4000001"
   id="rect685" />
	<rect
   x="143"
   y="274.5"
   class="st17"
   width="1.2"
   height="5.4000001"
   id="rect687" />
	<rect
   x="146.3"
   y="274.5"
   class="st17"
   width="1.2"
   height="5.4000001"
   id="rect689" />
	<rect
   x="149.7"
   y="274.5"
   class="st17"
   width="1.2"
   height="5.4000001"
   id="rect691" />
	<rect
   x="153.2"
   y="274.5"
   class="st17"
   width="1.2"
   height="5.4000001"
   id="rect693" />
	<path
   class="st17"
   d="m 188.2,281.2 h -21.7 c -0.8,0 -1.4,-0.6 -1.4,-1.4 v -21.7 c 0,-0.8 0.6,-1.4 1.4,-1.4 h 21.7 c 0.8,0 1.4,0.6 1.4,1.4 v 21.7 c 0,0.8 -0.6,1.4 -1.4,1.4 z"
   id="path695" />
	<polyline
   class="st21"
   points="151.1,201.7 154.3,201.7 154.3,222.2 148.5,222.2  "
   id="polyline697" />
	<g
   id="g703">
		<path
   class="st18"
   d="m 160.2,192.9 -0.9,-1.7 h -0.6 v 1.7 h -0.9 v -4.4 h 1.5 c 0.9,0 1.7,0.3 1.7,1.3 0,0.7 -0.3,1.1 -0.8,1.3 l 1,1.8 z m -1.5,-2.4 h 0.6 c 0.6,0 0.9,-0.2 0.9,-0.7 0,-0.5 -0.3,-0.6 -0.9,-0.6 h -0.6 z"
   id="path699" />
		<path
   class="st18"
   d="m 162.8,190.6 -1.2,-2.1 h 1 l 0.4,0.9 c 0.1,0.2 0.2,0.4 0.3,0.7 v 0 c 0.1,-0.3 0.2,-0.5 0.3,-0.7 l 0.4,-0.9 h 0.9 l -1.2,2.2 1.2,2.2 h -1 l -0.5,-1 c -0.1,-0.2 -0.2,-0.5 -0.3,-0.7 v 0 c -0.1,0.3 -0.2,0.5 -0.3,0.7 l -0.5,1 h -0.9 z"
   id="path701" />
	</g>
	<g
   id="g709">
		<path
   class="st18"
   d="m 158.7,197.8 h -1.2 v -0.7 h 3.4 v 0.7 h -1.3 v 3.7 h -0.9 z"
   id="path705" />
		<path
   class="st18"
   d="m 162.4,199.3 -1.2,-2.1 h 1 l 0.4,0.9 c 0.1,0.2 0.2,0.4 0.3,0.7 v 0 c 0.1,-0.3 0.2,-0.5 0.3,-0.7 l 0.4,-0.9 h 0.9 l -1.2,2.2 1.2,2.2 h -1 l -0.5,-1 c -0.1,-0.2 -0.2,-0.5 -0.3,-0.7 v 0 c -0.1,0.3 -0.2,0.5 -0.3,0.7 l -0.5,1 H 161 Z"
   id="path707" />
	</g>
	<g
   id="g717">
		<path
   class="st18"
   d="m 156.3,209.2 0.3,-0.4 c 0.3,0.3 0.6,0.5 1.1,0.5 0.5,0 0.9,-0.3 0.9,-0.8 0,-0.5 -0.4,-0.9 -1.4,-0.9 v -0.4 c 0.9,0 1.2,-0.4 1.2,-0.8 0,-0.4 -0.3,-0.7 -0.7,-0.7 -0.4,0 -0.7,0.2 -0.9,0.4 l -0.3,-0.3 c 0.3,-0.3 0.7,-0.5 1.2,-0.5 0.7,0 1.3,0.4 1.3,1.1 0,0.5 -0.3,0.9 -0.8,1.1 v 0 c 0.5,0.1 0.9,0.5 0.9,1.1 0,0.8 -0.6,1.3 -1.4,1.3 -0.7,-0.1 -1.1,-0.4 -1.4,-0.7 z"
   id="path711" />
		<path
   class="st18"
   d="m 159.6,205.3 h 0.6 l 0.7,2.4 c 0.2,0.5 0.3,0.9 0.4,1.5 v 0 c 0.2,-0.5 0.3,-0.9 0.4,-1.5 l 0.7,-2.4 h 0.6 l -1.4,4.4 H 161 Z"
   id="path713" />
		<path
   class="st18"
   d="m 163.4,209.2 0.3,-0.4 c 0.3,0.3 0.6,0.5 1.1,0.5 0.5,0 0.9,-0.3 0.9,-0.8 0,-0.5 -0.4,-0.9 -1.4,-0.9 v -0.4 c 0.9,0 1.2,-0.4 1.2,-0.8 0,-0.4 -0.3,-0.7 -0.7,-0.7 -0.4,0 -0.7,0.2 -0.9,0.4 l -0.3,-0.3 c 0.3,-0.3 0.7,-0.5 1.2,-0.5 0.7,0 1.3,0.4 1.3,1.1 0,0.5 -0.3,0.9 -0.8,1.1 v 0 c 0.5,0.1 0.9,0.5 0.9,1.1 0,0.8 -0.6,1.3 -1.4,1.3 -0.7,-0.1 -1.1,-0.4 -1.4,-0.7 z"
   id="path715" />
	</g>
	<g
   id="g723">
		<path
   class="st18"
   d="m 158.5,218 0.3,-0.4 c 0.3,0.3 0.6,0.5 1.1,0.5 0.5,0 0.9,-0.4 0.9,-1 0,-0.6 -0.4,-1 -0.9,-1 -0.3,0 -0.5,0.1 -0.7,0.3 l -0.3,-0.2 0.1,-2.1 h 2.1 v 0.5 h -1.7 l -0.1,1.3 c 0.2,-0.1 0.4,-0.2 0.7,-0.2 0.7,0 1.3,0.4 1.3,1.4 0,1 -0.7,1.5 -1.4,1.5 -0.7,-0.1 -1.1,-0.4 -1.4,-0.6 z"
   id="path719" />
		<path
   class="st18"
   d="m 161.8,214.1 h 0.6 l 0.7,2.4 c 0.2,0.5 0.3,0.9 0.4,1.5 v 0 c 0.2,-0.5 0.3,-0.9 0.4,-1.5 l 0.7,-2.4 h 0.6 l -1.4,4.4 h -0.6 z"
   id="path721" />
	</g>
	<path
   class="st18"
   d="m 145.8,303 h -12.4 c -0.6,0 -1.1,-0.5 -1.1,-1.1 v -8.6 c 0,-0.6 0.5,-1.1 1.1,-1.1 h 12.4 c 0.6,0 1.1,0.5 1.1,1.1 v 8.6 c 0,0.6 -0.5,1.1 -1.1,1.1 z"
   id="path725" />
	<rect
   x="134.8"
   y="292.20001"
   class="st20"
   width="9.6999998"
   height="10.8"
   id="rect727" />
	<path
   class="st23"
   d="m 245.9,132.8 v 47.5 c 0,3.4 -2.5,6.1 -5.7,6.1 h -30.4 c -3.1,0 -5.7,-2.7 -5.7,-6.1 v -47.5"
   id="path729" />
	<path
   class="st24"
   d="M 204.1,132.8 V 104 c 0,-2.9 1.9,-5.3 4.3,-5.3 h 33.2 c 2.4,0 4.3,2.4 4.3,5.3 v 28.8"
   id="path731" />
	<rect
   x="168.89999"
   y="290.89999"
   class="st18"
   width="13"
   height="24.799999"
   id="rect733" />
	<rect
   x="168.89999"
   y="295.20001"
   class="st7"
   width="13"
   height="17"
   id="rect735" />
</g>
<g
   id="g739"
   transform="translate(-67.6,-70.000001)">
</g>
<g
   id="g741"
   transform="translate(-67.6,-70.000001)">
</g>
<g
   id="g743"
   transform="translate(-67.6,-70.000001)">
</g>
<g
   id="g745"
   transform="translate(-67.6,-70.000001)">
</g>
<g
   id="g747"
   transform="translate(-67.6,-70.000001)">
</g>
<g
   id="g749"
   transform="translate(-67.6,-70.000001)">
</g>
</svg>
